<svg width="116" height="27" viewBox="0 0 116 27" fill="none" xmlns="http://www.w3.org/2000/svg">
    <g clip-path="url(#clip0_743_347)">
        <path d="M31.7564 13.3655C32.6416 13.3655 33.3591 12.6479 33.3591 11.7628C33.3591 10.8777 32.6416 10.1602 31.7564 10.1602C30.8713 10.1602 30.1538 10.8777 30.1538 11.7628C30.1538 12.6479 30.8713 13.3655 31.7564 13.3655Z" fill="#008CFF"/>
        <path d="M8.0133 7.90454C8.89842 7.90454 9.61594 7.187 9.61594 6.30188C9.61594 5.41675 8.89842 4.69922 8.0133 4.69922C7.12819 4.69922 6.41064 5.41675 6.41064 6.30188C6.41064 7.187 7.12819 7.90454 8.0133 7.90454Z" fill="#008CFF"/>
        <path d="M24.6333 4.69922H19.2911C18.406 4.69922 17.6885 5.41675 17.6885 6.30188C17.6885 7.187 18.406 7.90453 19.2911 7.90453H24.6333C25.5184 7.90453 26.236 7.187 26.236 6.30188C26.236 5.41675 25.5184 4.69922 24.6333 4.69922Z" fill="#008CFF"/>
        <path d="M31.7563 4.69922H29.7382C28.853 4.69922 28.1355 5.41675 28.1355 6.30188C28.1355 7.187 28.853 7.90453 29.7382 7.90453H31.7563C32.6414 7.90453 33.359 7.187 33.359 6.30188C33.359 5.41675 32.6414 4.69922 31.7563 4.69922Z" fill="#008CFF"/>
        <path d="M3.73952 10.1602H1.60266C0.717535 10.1602 0 10.8777 0 11.7628C0 12.6479 0.717535 13.3655 1.60266 13.3655H3.73952C4.62464 13.3655 5.34218 12.6479 5.34218 11.7628C5.34218 10.8777 4.62464 10.1602 3.73952 10.1602Z" fill="#008CFF"/>
        <path d="M20.4784 10.1602H9.91272C9.02759 10.1602 8.31006 10.8777 8.31006 11.7628C8.31006 12.6479 9.02759 13.3655 9.91272 13.3655H20.4784C21.3635 13.3655 22.0811 12.6479 22.0811 11.7628C22.0811 10.8777 21.3635 10.1602 20.4784 10.1602Z" fill="#008CFF"/>
        <path d="M23.4462 15.502H11.9308C11.0457 15.502 10.3281 16.2195 10.3281 17.1046C10.3281 17.9898 11.0457 18.7073 11.9308 18.7073H23.4462C24.3313 18.7073 25.0488 17.9898 25.0488 17.1046C25.0488 16.2195 24.3313 15.502 23.4462 15.502Z" fill="#008CFF"/>
        <path d="M48.33 20.764C43.842 20.764 40.498 17.266 40.498 12.844V12.8C40.498 8.422 43.776 4.836 48.44 4.836C50.816 4.836 52.378 5.54 53.72 6.574C54.006 6.794 54.248 7.168 54.248 7.652C54.248 8.4 53.654 8.972 52.906 8.972C52.532 8.972 52.268 8.84 52.092 8.708C51.036 7.85 49.892 7.322 48.418 7.322C45.492 7.322 43.336 9.742 43.336 12.756V12.8C43.336 15.814 45.47 18.256 48.418 18.256C50.046 18.256 51.146 17.728 52.268 16.782C52.466 16.606 52.752 16.474 53.082 16.474C53.764 16.474 54.358 17.046 54.358 17.728C54.358 18.146 54.16 18.476 53.918 18.696C52.466 19.972 50.816 20.764 48.33 20.764ZM64.3405 20.764C59.6105 20.764 56.3105 17.178 56.3105 12.844V12.8C56.3105 8.466 59.6545 4.836 64.3845 4.836C69.1145 4.836 72.4145 8.422 72.4145 12.756V12.8C72.4145 17.134 69.0705 20.764 64.3405 20.764ZM64.3845 18.256C67.4425 18.256 69.5765 15.836 69.5765 12.844V12.8C69.5765 9.808 67.3985 7.322 64.3405 7.322C61.2825 7.322 59.1485 9.764 59.1485 12.756V12.8C59.1485 15.792 61.3265 18.256 64.3845 18.256ZM75.6839 19.29V6.376C75.6839 5.628 76.2779 5.012 77.0479 5.012H77.3339C77.9279 5.012 78.3239 5.32 78.5879 5.738L83.2519 13.042L87.9379 5.716C88.2239 5.254 88.6199 5.012 89.1699 5.012H89.4559C90.2259 5.012 90.8199 5.628 90.8199 6.376V19.268C90.8199 20.016 90.2259 20.61 89.4559 20.61C88.7299 20.61 88.1139 19.994 88.1139 19.268V10.028L84.3519 15.682C84.0659 16.122 83.7139 16.386 83.2079 16.386C82.7239 16.386 82.3719 16.122 82.0859 15.682L78.3459 10.072V19.29C78.3459 20.038 77.7519 20.61 77.0039 20.61C76.2559 20.61 75.6839 20.038 75.6839 19.29ZM94.7835 19.268V6.464C94.7835 5.694 95.3775 5.1 96.1475 5.1H100.855C104.463 5.1 106.707 7.146 106.707 10.248V10.292C106.707 13.746 103.935 15.55 100.547 15.55H97.4895V19.268C97.4895 20.016 96.8955 20.61 96.1475 20.61C95.3775 20.61 94.7835 20.016 94.7835 19.268ZM97.4895 13.108H100.635C102.681 13.108 103.957 11.964 103.957 10.358V10.314C103.957 8.51 102.659 7.564 100.635 7.564H97.4895V13.108ZM109.633 19.268V6.332C109.633 5.584 110.227 4.99 110.997 4.99C111.745 4.99 112.339 5.584 112.339 6.332V19.268C112.339 20.016 111.745 20.61 110.997 20.61C110.227 20.61 109.633 20.016 109.633 19.268Z" fill="#008CFF"/>
    </g>
    <defs>
        <clipPath id="clip0_743_347">
            <rect width="115.2" height="26" fill="white" transform="translate(0 0.5)"/>
        </clipPath>
    </defs>
</svg>
