<svg width="24" height="25" viewBox="0 0 24 25" fill="currentColor" xmlns="http://www.w3.org/2000/svg">
    <g clip-path="url(#clip0_743_359)">
        <path d="M17.9958 19.818V21.4794C17.9958 21.92 17.8206 22.3426 17.5091 22.6541C17.1976 22.9656 16.775 23.1407 16.3344 23.1407H4.70482C4.2642 23.1407 3.84163 22.9656 3.53005 22.6541C3.2185 22.3426 3.04346 21.92 3.04346 21.4794V3.20434C3.04346 2.76371 3.2185 2.34114 3.53005 2.02957C3.84163 1.71801 4.2642 1.54297 4.70482 1.54297H16.3344C16.775 1.54297 17.1976 1.71801 17.5091 2.02957C17.8206 2.34114 17.9958 2.76371 17.9958 3.20434V4.8657" stroke="#8A8A8E" stroke-width="1.78435" stroke-linecap="round" stroke-linejoin="round"/>
        <path d="M9.68896 12.3438H21.3185" stroke="#8A8A8E" stroke-width="1.78435" stroke-linecap="round" stroke-linejoin="round"/>
        <path d="M17.9956 9.01953L21.3183 12.3423L17.9956 15.665" stroke="#8A8A8E" stroke-width="1.78435" stroke-linecap="round" stroke-linejoin="round"/>
    </g>
    <defs>
        <clipPath id="clip0_743_359">
            <rect width="24" height="24" fill="currentColor" transform="translate(0 0.5)"/>
        </clipPath>
    </defs>
</svg>
